<svg width="20" height="21" viewBox="0 0 20 21" fill="none" xmlns="http://www.w3.org/2000/svg">
<path d="M1 3.39258C1 2.28801 1.89543 1.39258 3 1.39258H6.27924C6.70967 1.39258 7.09181 1.66801 7.22792 2.07635L8.72574 6.56979C8.88311 7.0419 8.66938 7.55789 8.22427 7.78044L5.96701 8.90908C7.06925 11.3538 9.03878 13.3233 11.4835 14.4256L12.6121 12.1683C12.8347 11.7232 13.3507 11.5095 13.8228 11.6668L18.3162 13.1647C18.7246 13.3008 19 13.6829 19 14.1133V17.3926C19 18.4971 18.1046 19.3926 17 19.3926H16C7.71573 19.3926 1 12.6768 1 4.39258V3.39258Z" stroke="#6B7280" stroke-width="2" stroke-linecap="round" stroke-linejoin="round"/>
</svg>
